<svg xmlns="http://www.w3.org/2000/svg" xmlns:xlink="http://www.w3.org/1999/xlink" width="139" height="23" viewBox="0 0 139 23"><title>Emergya</title><defs><path id="a" d="M19.19 21.867V.295H.1v21.572h19.09z"></path><path id="c" d="M21.658.233H.046v21.969h21.612V.233z"></path></defs><g fill="none" fill-rule="evenodd"><path fill="#F6323F" d="M13.466 22.304H24.32V19.58h-8.206v-7.46h8.166v-2.8h-8.166V3.154h8.261V.583H13.466z"></path><path d="M76.534 10.896h-3.898V3.153h3.867c1.383 0 2.44.338 3.174 1.012.734.674 1.1 1.643 1.1 2.907 0 .527-.089 1.022-.267 1.485a3.37 3.37 0 0 1-.801 1.217 3.81 3.81 0 0 1-1.32.821c-.524.2-1.143.3-1.855.3m3.898 1.423a6.4 6.4 0 0 0 1.587-1.312 5.981 5.981 0 0 0 1.462-3.934 7.11 7.11 0 0 0-.377-2.244 5.352 5.352 0 0 0-1.242-2.038c-.577-.6-1.326-1.09-2.248-1.47C78.692.942 77.56.753 76.22.753h-6.193v21.552h2.609v-9.007h2.86l6.476 9.007h3.3l-6.758-9.26a5.905 5.905 0 0 0 1.918-.726M119.468.732l-4.987 9.492-5.107-9.492h-2.704l6.417 12.465v9.107h2.698v-9.138L122.292.732z" fill="#EF3340"></path><g transform="translate(119.57 .437)"><mask id="b" fill="#fff"><use xlink:href="#a"></use></mask><path d="M5.84 13.907l2.27-5.893c.123-.309.251-.643.384-1.003a71.353 71.353 0 0 0 1.12-3.286h.123c.082.309.184.648.307 1.018s.25.751.384 1.142c.133.39.266.766.399 1.126.133.36.25.684.353.972l2.21 5.924H5.84zM10.902.295h-2.27L.1 21.867h2.7l2.18-5.677h9.269l2.148 5.677h2.793L10.903.295z" fill="#EF3340" mask="url(#b)"></path></g><path fill="#F6323F" d="M54.843 22.285h10.853v-2.723h-8.207v-7.46h8.167V9.303h-8.167V3.136h8.262V.564H54.843zM.055 3.253h8.207v6.175H.095v2.723h8.167v7.528H0v2.572h10.908V.529H.055z"></path><g transform="translate(85.265 .102)"><mask id="d" fill="#fff"><use xlink:href="#c"></use></mask><path d="M12.007 13.448h6.917a8.346 8.346 0 0 1-2.757 4.218 8.244 8.244 0 0 1-5.195 1.85c-4.551 0-8.254-3.723-8.254-8.299 0-4.575 3.703-8.298 8.254-8.298a8.256 8.256 0 0 1 7.234 4.3l.186.339 2.178-1.611-.148-.263C18.499 2.271 14.967.233 10.972.233 4.947.233.046 5.161.046 11.217c0 6.057 4.901 10.985 10.926 10.985 2.617 0 5.141-.905 7.106-2.547 1.916-1.6 3.163-3.795 3.535-6.207h.045v-2.57h-9.65v2.57z" fill="#EF3340" mask="url(#d)"></path></g><path d="M32.037 4.218l.038-.415.11.402c.226.827 5.436 16.973 5.775 18.023h2.81c.34-1.05 5.55-17.196 5.776-18.023l.11-.402.037.415 1.622 18.01h3.007L49.397.559h-4.606l-5.354 15.635-.072.208-.07-.208L33.938.56h-4.606l-1.925 21.669h3.008l1.621-18.01z" fill="#EF3340"></path></g></svg>